<?xml version="1.0" encoding="UTF-8" standalone="no"?>
<svg
   xmlns:dc="http://purl.org/dc/elements/1.1/"
   xmlns:cc="http://creativecommons.org/ns#"
   xmlns:rdf="http://www.w3.org/1999/02/22-rdf-syntax-ns#"
   xmlns:svg="http://www.w3.org/2000/svg"
   xmlns="http://www.w3.org/2000/svg"
   xmlns:sodipodi="http://sodipodi.sourceforge.net/DTD/sodipodi-0.dtd"
   xmlns:inkscape="http://www.inkscape.org/namespaces/inkscape"
   width="100.89794mm"
   height="107.5446mm"
   viewBox="0 0 100.89794 107.5446"
   version="1.1"
   id="svg8"
   inkscape:version="1.0.2-2 (e86c870879, 2021-01-15)"
   sodipodi:docname="logo.svg">
  <defs
     id="defs2">
    <rect
       x="91.470238"
       y="132.66965"
       width="6.8035712"
       height="14.552083"
       id="rect1030" />
    <clipPath
       clipPathUnits="userSpaceOnUse"
       id="clipPath1020">
      <path
         id="path1022"
         style="fill:#ff0000;fill-opacity:1;fill-rule:nonzero;stroke:none;stroke-width:0.264583"
         d="m 111.32602,112.64894 v 39.28545 h 29.84831 c -8e-4,-0.37919 0.003,-0.5301 0.002,-0.85421 -0.009,-0.50751 -0.0191,-1.02009 0.0171,-1.52807 -0.0328,-0.17851 -0.0621,-0.35748 -0.0816,-0.53795 -0.16926,-1.5637 -0.0494,-2.14285 0.0796,-3.67575 0.80149,-3.53708 0.29088,-1.93841 0.87178,-3.48144 0.0303,-0.0806 0.0576,-0.1627 0.0853,-0.24443 -0.13417,-0.984 -0.24684,-1.97103 -0.31213,-2.96054 -0.73123,0.11352 -1.66121,0.15906 -2.82928,0.12299 -7.6151,-0.23518 -1.46284,0.75838 -9.96218,-4.29586 -0.52853,-0.31429 0.68486,1.03632 1.13791,1.45211 0.69495,0.63781 1.49953,1.14471 2.27015,1.6893 0.3383,0.0875 1.12103,0.25939 0.83406,0.19689 -0.33143,-0.0722 -0.59404,-0.13117 -0.81649,-0.18449 0.0155,0.011 0.0315,0.0215 0.047,0.0326 0.0533,0.0379 0.17398,0.0939 0.29818,0.14676 -0.19518,-0.0796 -0.36193,-0.15211 -0.53589,-0.22996 -1.23657,-0.31787 -0.97827,-0.49007 -4.31756,-2.28204 -2.03395,-2.13505 -1.80576,-1.64602 -3.19464,-6.18205 -0.1975,-0.64656 -0.21663,-1.38509 -0.008,-2.0283 0.54114,-1.66872 1.50927,-3.17222 2.18023,-4.79195 -0.25147,0.21895 -0.50302,0.43786 -0.75448,0.65681 0.34017,-0.45133 1.20484,-1.88873 1.02061,-1.35444 -0.0811,0.23533 -0.17093,0.46779 -0.26613,0.69763 1.19823,-1.04326 2.39637,-2.08678 3.59461,-3.13004 1.34728,-0.28781 2.69029,-0.59534 4.04161,-0.86351 0.0963,-0.0189 0.19687,0.002 0.29508,0.003 0.24989,0.002 0.49941,0.004 0.7493,0.005 1.23846,0.007 2.47713,0.007 3.71554,-0.009 0.61861,-0.006 1.23712,-0.006 1.8557,-0.009 0.0208,-0.94411 0.0495,-1.88816 0.0956,-2.83187 0.0907,-1.06244 0.022,0.14653 -0.24081,-2.03811 -0.031,-0.25788 -0.0549,-0.51673 -0.0816,-0.77515 z m 25.74055,6.65179 c 0.12676,0.0403 0.25456,0.0772 0.38188,0.11575 -0.006,-0.003 -0.011,-0.007 -0.0165,-0.01 -0.12189,-0.0354 -0.48631,-0.14433 -0.36535,-0.10593 z m -2.45102,0.89503 c -10.51303,-0.0522 1.43138,7.64207 6.92826,13.14752 0.0211,-0.0473 0.044,-0.0939 0.0656,-0.14108 -0.002,-0.0966 -0.006,-0.19328 -0.008,-0.2899 -0.0124,-0.61202 0.0726,-0.4206 0.0398,-1.10795 -0.0157,-0.32853 -0.0633,-0.65448 -0.0951,-0.98185 -0.15477,-1.61069 -0.309,-3.20988 -0.3669,-4.82864 -0.0287,-0.81683 10e-4,-1.63472 -0.005,-2.45205 -0.002,-0.34764 -0.008,-0.69521 -0.0119,-1.04283 -0.002,-0.2202 -5.3e-4,-0.44025 -0.002,-0.66042 -0.26623,-0.22362 -0.48496,-0.42091 -0.64493,-0.58292 l -1.59473,-0.95601 c -0.59394,-0.0217 -1.59971,-0.0134 -3.47266,-0.0853 -0.29193,-0.0112 -0.56922,-0.0173 -0.8325,-0.0186 z m 6.61769,29.55789 c 0.009,0.098 0.0219,0.23032 0.0227,0.23513 0.0552,0.30685 0.24291,1.22259 0.19741,0.91415 -0.057,-0.38571 -0.1438,-0.76671 -0.22014,-1.14928 z" />
    </clipPath>
    <filter
       inkscape:collect="always"
       style="color-interpolation-filters:sRGB"
       id="filter1062"
       x="-0.018784668"
       width="1.0375693"
       y="-0.0090814075"
       height="1.0181628">
      <feGaussianBlur
         inkscape:collect="always"
         stdDeviation="0.093917605"
         id="feGaussianBlur1064" />
    </filter>
    <clipPath
       clipPathUnits="userSpaceOnUse"
       id="clipPath1020-1">
      <path
         id="path1022-9"
         style="fill:#ff0000;fill-opacity:1;fill-rule:nonzero;stroke:none;stroke-width:0.264583"
         d="m 111.32602,112.64894 v 39.28545 h 29.84831 c -8e-4,-0.37919 0.003,-0.5301 0.002,-0.85421 -0.009,-0.50751 -0.0191,-1.02009 0.0171,-1.52807 -0.0328,-0.17851 -0.0621,-0.35748 -0.0816,-0.53795 -0.16926,-1.5637 -0.0494,-2.14285 0.0796,-3.67575 0.80149,-3.53708 0.29088,-1.93841 0.87178,-3.48144 0.0303,-0.0806 0.0576,-0.1627 0.0853,-0.24443 -0.13417,-0.984 -0.24684,-1.97103 -0.31213,-2.96054 -0.73123,0.11352 -1.66121,0.15906 -2.82928,0.12299 -7.6151,-0.23518 -1.46284,0.75838 -9.96218,-4.29586 -0.52853,-0.31429 0.68486,1.03632 1.13791,1.45211 0.69495,0.63781 1.49953,1.14471 2.27015,1.6893 0.3383,0.0875 1.12103,0.25939 0.83406,0.19689 -0.33143,-0.0722 -0.59404,-0.13117 -0.81649,-0.18449 0.0155,0.011 0.0315,0.0215 0.047,0.0326 0.0533,0.0379 0.17398,0.0939 0.29818,0.14676 -0.19518,-0.0796 -0.36193,-0.15211 -0.53589,-0.22996 -1.23657,-0.31787 -0.97827,-0.49007 -4.31756,-2.28204 -2.03395,-2.13505 -1.80576,-1.64602 -3.19464,-6.18205 -0.1975,-0.64656 -0.21663,-1.38509 -0.008,-2.0283 0.54114,-1.66872 1.50927,-3.17222 2.18023,-4.79195 -0.25147,0.21895 -0.50302,0.43786 -0.75448,0.65681 0.34017,-0.45133 1.20484,-1.88873 1.02061,-1.35444 -0.0811,0.23533 -0.17093,0.46779 -0.26613,0.69763 1.19823,-1.04326 2.39637,-2.08678 3.59461,-3.13004 1.34728,-0.28781 2.69029,-0.59534 4.04161,-0.86351 0.0963,-0.0189 0.19687,0.002 0.29508,0.003 0.24989,0.002 0.49941,0.004 0.7493,0.005 1.23846,0.007 2.47713,0.007 3.71554,-0.009 0.61861,-0.006 1.23712,-0.006 1.8557,-0.009 0.0208,-0.94411 0.0495,-1.88816 0.0956,-2.83187 0.0907,-1.06244 0.022,0.14653 -0.24081,-2.03811 -0.031,-0.25788 -0.0549,-0.51673 -0.0816,-0.77515 z m 25.74055,6.65179 c 0.12676,0.0403 0.25456,0.0772 0.38188,0.11575 -0.006,-0.003 -0.011,-0.007 -0.0165,-0.01 -0.12189,-0.0354 -0.48631,-0.14433 -0.36535,-0.10593 z m -2.45102,0.89503 c -10.51303,-0.0522 1.43138,7.64207 6.92826,13.14752 0.0211,-0.0473 0.044,-0.0939 0.0656,-0.14108 -0.002,-0.0966 -0.006,-0.19328 -0.008,-0.2899 -0.0124,-0.61202 0.0726,-0.4206 0.0398,-1.10795 -0.0157,-0.32853 -0.0633,-0.65448 -0.0951,-0.98185 -0.15477,-1.61069 -0.309,-3.20988 -0.3669,-4.82864 -0.0287,-0.81683 10e-4,-1.63472 -0.005,-2.45205 -0.002,-0.34764 -0.008,-0.69521 -0.0119,-1.04283 -0.002,-0.2202 -5.3e-4,-0.44025 -0.002,-0.66042 -0.26623,-0.22362 -0.48496,-0.42091 -0.64493,-0.58292 l -1.59473,-0.95601 c -0.59394,-0.0217 -1.59971,-0.0134 -3.47266,-0.0853 -0.29193,-0.0112 -0.56922,-0.0173 -0.8325,-0.0186 z m 6.61769,29.55789 c 0.009,0.098 0.0219,0.23032 0.0227,0.23513 0.0552,0.30685 0.24291,1.22259 0.19741,0.91415 -0.057,-0.38571 -0.1438,-0.76671 -0.22014,-1.14928 z" />
    </clipPath>
    <clipPath
       clipPathUnits="userSpaceOnUse"
       id="clipPath1020-2">
      <path
         id="path1022-6"
         style="fill:#ff0000;fill-opacity:1;fill-rule:nonzero;stroke:none;stroke-width:0.264583"
         d="m 111.32602,112.64894 v 39.28545 h 29.84831 c -8e-4,-0.37919 0.003,-0.5301 0.002,-0.85421 -0.009,-0.50751 -0.0191,-1.02009 0.0171,-1.52807 -0.0328,-0.17851 -0.0621,-0.35748 -0.0816,-0.53795 -0.16926,-1.5637 -0.0494,-2.14285 0.0796,-3.67575 0.80149,-3.53708 0.29088,-1.93841 0.87178,-3.48144 0.0303,-0.0806 0.0576,-0.1627 0.0853,-0.24443 -0.13417,-0.984 -0.24684,-1.97103 -0.31213,-2.96054 -0.73123,0.11352 -1.66121,0.15906 -2.82928,0.12299 -7.6151,-0.23518 -1.46284,0.75838 -9.96218,-4.29586 -0.52853,-0.31429 0.68486,1.03632 1.13791,1.45211 0.69495,0.63781 1.49953,1.14471 2.27015,1.6893 0.3383,0.0875 1.12103,0.25939 0.83406,0.19689 -0.33143,-0.0722 -0.59404,-0.13117 -0.81649,-0.18449 0.0155,0.011 0.0315,0.0215 0.047,0.0326 0.0533,0.0379 0.17398,0.0939 0.29818,0.14676 -0.19518,-0.0796 -0.36193,-0.15211 -0.53589,-0.22996 -1.23657,-0.31787 -0.97827,-0.49007 -4.31756,-2.28204 -2.03395,-2.13505 -1.80576,-1.64602 -3.19464,-6.18205 -0.1975,-0.64656 -0.21663,-1.38509 -0.008,-2.0283 0.54114,-1.66872 1.50927,-3.17222 2.18023,-4.79195 -0.25147,0.21895 -0.50302,0.43786 -0.75448,0.65681 0.34017,-0.45133 1.20484,-1.88873 1.02061,-1.35444 -0.0811,0.23533 -0.17093,0.46779 -0.26613,0.69763 1.19823,-1.04326 2.39637,-2.08678 3.59461,-3.13004 1.34728,-0.28781 2.69029,-0.59534 4.04161,-0.86351 0.0963,-0.0189 0.19687,0.002 0.29508,0.003 0.24989,0.002 0.49941,0.004 0.7493,0.005 1.23846,0.007 2.47713,0.007 3.71554,-0.009 0.61861,-0.006 1.23712,-0.006 1.8557,-0.009 0.0208,-0.94411 0.0495,-1.88816 0.0956,-2.83187 0.0907,-1.06244 0.022,0.14653 -0.24081,-2.03811 -0.031,-0.25788 -0.0549,-0.51673 -0.0816,-0.77515 z m 25.74055,6.65179 c 0.12676,0.0403 0.25456,0.0772 0.38188,0.11575 -0.006,-0.003 -0.011,-0.007 -0.0165,-0.01 -0.12189,-0.0354 -0.48631,-0.14433 -0.36535,-0.10593 z m -2.45102,0.89503 c -10.51303,-0.0522 1.43138,7.64207 6.92826,13.14752 0.0211,-0.0473 0.044,-0.0939 0.0656,-0.14108 -0.002,-0.0966 -0.006,-0.19328 -0.008,-0.2899 -0.0124,-0.61202 0.0726,-0.4206 0.0398,-1.10795 -0.0157,-0.32853 -0.0633,-0.65448 -0.0951,-0.98185 -0.15477,-1.61069 -0.309,-3.20988 -0.3669,-4.82864 -0.0287,-0.81683 10e-4,-1.63472 -0.005,-2.45205 -0.002,-0.34764 -0.008,-0.69521 -0.0119,-1.04283 -0.002,-0.2202 -5.3e-4,-0.44025 -0.002,-0.66042 -0.26623,-0.22362 -0.48496,-0.42091 -0.64493,-0.58292 l -1.59473,-0.95601 c -0.59394,-0.0217 -1.59971,-0.0134 -3.47266,-0.0853 -0.29193,-0.0112 -0.56922,-0.0173 -0.8325,-0.0186 z m 6.61769,29.55789 c 0.009,0.098 0.0219,0.23032 0.0227,0.23513 0.0552,0.30685 0.24291,1.22259 0.19741,0.91415 -0.057,-0.38571 -0.1438,-0.76671 -0.22014,-1.14928 z" />
    </clipPath>
    <clipPath
       clipPathUnits="userSpaceOnUse"
       id="clipPath1020-1-0">
      <path
         id="path1022-9-4"
         style="fill:#ff0000;fill-opacity:1;fill-rule:nonzero;stroke:none;stroke-width:0.264583"
         d="m 111.32602,112.64894 v 39.28545 h 29.84831 c -8e-4,-0.37919 0.003,-0.5301 0.002,-0.85421 -0.009,-0.50751 -0.0191,-1.02009 0.0171,-1.52807 -0.0328,-0.17851 -0.0621,-0.35748 -0.0816,-0.53795 -0.16926,-1.5637 -0.0494,-2.14285 0.0796,-3.67575 0.80149,-3.53708 0.29088,-1.93841 0.87178,-3.48144 0.0303,-0.0806 0.0576,-0.1627 0.0853,-0.24443 -0.13417,-0.984 -0.24684,-1.97103 -0.31213,-2.96054 -0.73123,0.11352 -1.66121,0.15906 -2.82928,0.12299 -7.6151,-0.23518 -1.46284,0.75838 -9.96218,-4.29586 -0.52853,-0.31429 0.68486,1.03632 1.13791,1.45211 0.69495,0.63781 1.49953,1.14471 2.27015,1.6893 0.3383,0.0875 1.12103,0.25939 0.83406,0.19689 -0.33143,-0.0722 -0.59404,-0.13117 -0.81649,-0.18449 0.0155,0.011 0.0315,0.0215 0.047,0.0326 0.0533,0.0379 0.17398,0.0939 0.29818,0.14676 -0.19518,-0.0796 -0.36193,-0.15211 -0.53589,-0.22996 -1.23657,-0.31787 -0.97827,-0.49007 -4.31756,-2.28204 -2.03395,-2.13505 -1.80576,-1.64602 -3.19464,-6.18205 -0.1975,-0.64656 -0.21663,-1.38509 -0.008,-2.0283 0.54114,-1.66872 1.50927,-3.17222 2.18023,-4.79195 -0.25147,0.21895 -0.50302,0.43786 -0.75448,0.65681 0.34017,-0.45133 1.20484,-1.88873 1.02061,-1.35444 -0.0811,0.23533 -0.17093,0.46779 -0.26613,0.69763 1.19823,-1.04326 2.39637,-2.08678 3.59461,-3.13004 1.34728,-0.28781 2.69029,-0.59534 4.04161,-0.86351 0.0963,-0.0189 0.19687,0.002 0.29508,0.003 0.24989,0.002 0.49941,0.004 0.7493,0.005 1.23846,0.007 2.47713,0.007 3.71554,-0.009 0.61861,-0.006 1.23712,-0.006 1.8557,-0.009 0.0208,-0.94411 0.0495,-1.88816 0.0956,-2.83187 0.0907,-1.06244 0.022,0.14653 -0.24081,-2.03811 -0.031,-0.25788 -0.0549,-0.51673 -0.0816,-0.77515 z m 25.74055,6.65179 c 0.12676,0.0403 0.25456,0.0772 0.38188,0.11575 -0.006,-0.003 -0.011,-0.007 -0.0165,-0.01 -0.12189,-0.0354 -0.48631,-0.14433 -0.36535,-0.10593 z m -2.45102,0.89503 c -10.51303,-0.0522 1.43138,7.64207 6.92826,13.14752 0.0211,-0.0473 0.044,-0.0939 0.0656,-0.14108 -0.002,-0.0966 -0.006,-0.19328 -0.008,-0.2899 -0.0124,-0.61202 0.0726,-0.4206 0.0398,-1.10795 -0.0157,-0.32853 -0.0633,-0.65448 -0.0951,-0.98185 -0.15477,-1.61069 -0.309,-3.20988 -0.3669,-4.82864 -0.0287,-0.81683 10e-4,-1.63472 -0.005,-2.45205 -0.002,-0.34764 -0.008,-0.69521 -0.0119,-1.04283 -0.002,-0.2202 -5.3e-4,-0.44025 -0.002,-0.66042 -0.26623,-0.22362 -0.48496,-0.42091 -0.64493,-0.58292 l -1.59473,-0.95601 c -0.59394,-0.0217 -1.59971,-0.0134 -3.47266,-0.0853 -0.29193,-0.0112 -0.56922,-0.0173 -0.8325,-0.0186 z m 6.61769,29.55789 c 0.009,0.098 0.0219,0.23032 0.0227,0.23513 0.0552,0.30685 0.24291,1.22259 0.19741,0.91415 -0.057,-0.38571 -0.1438,-0.76671 -0.22014,-1.14928 z" />
    </clipPath>
  </defs>
  <sodipodi:namedview
     id="base"
     pagecolor="#ffffff"
     bordercolor="#666666"
     borderopacity="1.0"
     inkscape:pageopacity="0.0"
     inkscape:pageshadow="2"
     inkscape:zoom="1.4"
     inkscape:cx="220.85778"
     inkscape:cy="168.18355"
     inkscape:document-units="mm"
     inkscape:current-layer="layer1"
     inkscape:document-rotation="0"
     showgrid="false"
     inkscape:window-width="1566"
     inkscape:window-height="1033"
     inkscape:window-x="192"
     inkscape:window-y="0"
     inkscape:window-maximized="0" />
  <metadata
     id="metadata5">
    <rdf:RDF>
      <cc:Work
         rdf:about="">
        <dc:format>image/svg+xml</dc:format>
        <dc:type
           rdf:resource="http://purl.org/dc/dcmitype/StillImage" />
        <dc:title></dc:title>
      </cc:Work>
    </rdf:RDF>
  </metadata>
  <g
     inkscape:label="Layer 1"
     inkscape:groupmode="layer"
     id="layer1"
     transform="translate(-42.807243,-84.82618)">
    <rect
       style="fill:#000000;fill-opacity:0;stroke:#000000;stroke-width:3"
       id="rect865"
       width="37.230652"
       height="36.285713"
       x="75.595238"
       y="114.1488" />
    <rect
       style="fill:#000000;fill-opacity:0;stroke:#000000;stroke-width:3"
       id="rect865-1"
       width="37.230652"
       height="36.285713"
       x="112.82589"
       y="114.1488"
       clip-path="url(#clipPath1020)" />
    <g
       aria-label="?"
       id="text1026"
       style="font-style:normal;font-variant:normal;font-weight:normal;font-stretch:normal;font-size:10.5833px;line-height:0;font-family:'Baskerville Old Face';-inkscape-font-specification:'Baskerville Old Face';fill:#000000;fill-opacity:1;stroke:none;stroke-width:38.665;stroke-miterlimit:4;stroke-dasharray:none;filter:url(#filter1062)">
      <path
         d="m 90.318588,141.22798 q 0,-1.34875 0.976685,-2.29443 0.976684,-0.96118 2.325439,-0.96118 1.348755,0 2.309937,0.96118 0.976684,0.94568 0.976684,2.29443 0,1.34876 -0.976684,2.30994 -0.961182,0.94568 -2.309937,0.94568 -1.348755,0 -2.325439,-0.94568 -0.976685,-0.96118 -0.976685,-2.30994 z m 3.59668,-21.56457 q 6.449222,0 6.449222,4.86792 0,2.83703 -1.364261,4.65088 -0.496094,0.66662 -1.627808,1.64331 -1.224731,1.05419 -1.674316,1.5968 -0.511597,0.62011 -0.837158,2.27893 -0.232544,1.11621 -1.224732,1.11621 -0.976684,0 -1.674316,-0.82166 -0.682129,-0.82165 -0.682129,-1.81384 0,-1.20923 0.759643,-3.53467 0.775147,-2.34094 0.775147,-3.7362 0,-0.93018 -0.496094,-1.25574 -0.387573,-0.26355 -1.317749,-0.26355 -0.248047,0 -0.775146,0.37207 -0.5271,0.35657 -1.069702,0.35657 -0.79065,0 -0.79065,-1.13172 0,-1.84484 1.90686,-3.14709 1.705323,-1.17822 3.643189,-1.17822 z"
         style="font-style:normal;font-variant:normal;font-weight:normal;font-stretch:normal;font-size:31.75px;line-height:1.45;font-family:'Goudy Stout';-inkscape-font-specification:'Goudy Stout';stroke-width:38.665;stroke-miterlimit:4;stroke-dasharray:none"
         id="path853" />
    </g>
    <text
       xml:space="preserve"
       id="text1028"
       style="font-style:normal;font-weight:normal;font-size:10.5833px;line-height:1.25;font-family:sans-serif;white-space:pre;shape-inside:url(#rect1030);fill:#000000;fill-opacity:1;stroke:none;" />
    <rect
       style="fill:#000000;fill-opacity:0;stroke:#000000;stroke-width:3"
       id="rect865-1-9"
       width="37.230652"
       height="36.285713"
       x="112.82589"
       y="114.1488"
       clip-path="url(#clipPath1020-1)"
       transform="matrix(0,1,-1.0240532,0,229.68426,37.608623)" />
    <rect
       style="fill:#000000;fill-opacity:0;stroke:#000000;stroke-width:3"
       id="rect865-1-2"
       width="37.230652"
       height="36.285713"
       x="112.82589"
       y="114.1488"
       clip-path="url(#clipPath1020-2)"
       transform="matrix(-1,0,0,1,188.42113,0)" />
    <rect
       style="fill:#000000;fill-opacity:0;stroke:#000000;stroke-width:3"
       id="rect865-1-9-5"
       width="37.230652"
       height="36.285713"
       x="112.82589"
       y="114.1488"
       clip-path="url(#clipPath1020-1-0)"
       transform="matrix(0,-1,-1.0240532,0,229.68426,226.97469)" />
    <text
       xml:space="preserve"
       style="font-style:normal;font-variant:normal;font-weight:normal;font-stretch:normal;font-size:10.5833px;line-height:1.25;font-family:'Goudy Stout';-inkscape-font-specification:'Goudy Stout';fill:#000000;fill-opacity:1;stroke:none;stroke-width:0.264583"
       x="41.577377"
       y="191.82291"
       id="text1146"><tspan
         sodipodi:role="line"
         id="tspan1144"
         x="41.577377"
         y="191.82291"
         style="font-style:normal;font-variant:normal;font-weight:normal;font-stretch:normal;font-family:'Goudy Stout';-inkscape-font-specification:'Goudy Stout';stroke-width:0.264583">Sudo-clue</tspan></text>
    <text
       xml:space="preserve"
       style="font-style:normal;font-weight:normal;font-size:10.5833px;line-height:1.25;font-family:sans-serif;fill:#000000;fill-opacity:1;stroke:none;stroke-width:0.264583"
       x="78.430054"
       y="203.72916"
       id="text1154"><tspan
         sodipodi:role="line"
         id="tspan1152"
         x="78.430054"
         y="203.72916"
         style="stroke-width:0.264583" /></text>
  </g>
</svg>
