<?xml version="1.0" encoding="UTF-8" standalone="no"?>
<svg
   xmlns:dc="http://purl.org/dc/elements/1.1/"
   xmlns:cc="http://creativecommons.org/ns#"
   xmlns:rdf="http://www.w3.org/1999/02/22-rdf-syntax-ns#"
   xmlns:svg="http://www.w3.org/2000/svg"
   xmlns="http://www.w3.org/2000/svg"
   xmlns:sodipodi="http://sodipodi.sourceforge.net/DTD/sodipodi-0.dtd"
   xmlns:inkscape="http://www.inkscape.org/namespaces/inkscape"
   width="16"
   height="16"
   fill="currentColor"
   class="bi bi-arrow-down-circle"
   viewBox="0 0 16 16"
   version="1.1"
   id="svg901"
   sodipodi:docname="undo.svg"
   inkscape:version="1.0.2-2 (e86c870879, 2021-01-15)">
  <metadata
     id="metadata907">
    <rdf:RDF>
      <cc:Work
         rdf:about="">
        <dc:format>image/svg+xml</dc:format>
        <dc:type
           rdf:resource="http://purl.org/dc/dcmitype/StillImage" />
        <dc:title></dc:title>
      </cc:Work>
    </rdf:RDF>
  </metadata>
  <defs
     id="defs905">
    <clipPath
       clipPathUnits="userSpaceOnUse"
       id="clipPath1527">
      <path
         id="path1529"
         style="fill:#ff0000;fill-opacity:1;fill-rule:nonzero;stroke:none"
         d="M 0,0 V 16 H 16 V 0 Z m 8.1992188,1.6484375 c 0.2245827,-0.00888 0.3775592,0.062208 0.6582031,0.140625 0.2218246,0.2178995 0.4239376,0.4567459 0.6640625,0.6542969 0.011143,0.00917 0.012382,0.00649 0.021484,0.013672 C 9.525903,2.4205846 9.5130783,2.3856203 9.4941406,2.3496094 9.3282993,2.1606283 9.0697892,1.8924213 9.2304688,2.0703125 c 0.083866,0.092849 0.201027,0.1590584 0.2597656,0.2695313 0.0017,0.0032 0.00222,0.00656 0.00391,0.00977 0.1057954,0.1205569 0.1733874,0.2056436 0.048828,0.1074218 0.039355,0.084049 0.07775,0.1706002 0.1074218,0.25 0.00346,0.00464 0.003,0.00636 0.00586,0.00977 0.011236,0.013381 0.021825,0.021402 0.027344,0.035156 0.00185,0.00461 0.00403,0.00905 0.00586,0.013672 0.02863,0.038418 0.05877,0.075591 0.078125,0.1191406 0.098076,0.2206758 0.1235796,0.3210801 0.1367188,0.359375 0.00892,0.019559 0.022102,0.049689 0.033203,0.074219 0.016473,0.071544 -0.00164,0.00294 0.00195,0.019531 0.03247,0.071774 0.06428,0.1478045 0.097656,0.25 0.194985,0.1068216 0.380858,0.2307262 0.533203,0.3945313 0.06676,0.070153 0.135724,0.137609 0.201172,0.2089843 0.09088,0.099114 0.173601,0.2050602 0.261719,0.3066407 0.157978,0.1821146 0.318951,0.3619446 0.458985,0.5585937 0.0994,0.1322761 0.193435,0.2685996 0.291015,0.4023438 0.625341,0.2427112 1.172424,0.9181369 1.09375,2.0117187 -0.0069,0.095661 -0.03401,0.1854168 -0.05469,0.2773438 9.93e-4,0.00462 0.0029,0.00905 0.0039,0.013672 0.03608,0.1697878 0.07889,0.5758694 0.08789,0.7089843 0.006,0.08952 0.0012,0.1798103 0.002,0.2695313 -0.01272,0.1542211 -0.02063,0.3090255 -0.03711,0.4628906 -0.0085,0.079668 -0.03746,0.155063 -0.04883,0.234375 -0.01128,0.078674 -0.01239,0.1582681 -0.02734,0.2363281 -0.08011,0.4181852 -0.06327,0.3505962 -0.179687,0.6347662 -0.0574,0.106985 -0.108745,0.216604 -0.171875,0.320312 -0.03835,0.06301 -0.08191,0.122555 -0.13086,0.177735 -0.08926,0.100638 -0.184783,0.197362 -0.283203,0.289062 -0.123758,0.115309 -0.320482,0.219452 -0.460937,0.294922 -0.08257,0.04015 -0.161231,0.08556 -0.244141,0.125 -0.06215,0.02956 -0.126348,0.0565 -0.189453,0.08398 -0.01681,0.02367 -0.03135,0.04908 -0.04883,0.07227 -0.052,0.06899 -0.119668,0.123407 -0.179688,0.185547 -0.05313,0.055 -0.102693,0.115379 -0.158203,0.167969 -0.06199,0.05872 -0.126443,0.114245 -0.189453,0.171875 -0.195293,0.149099 -0.39363,0.304561 -0.6249998,0.394531 -0.075184,0.02923 -0.1539707,0.05057 -0.2304687,0.07617 -0.028352,0.0057 -0.066946,0.01281 -0.099609,0.01953 -0.139018,0.05181 -0.2632711,0.06772 -0.5175781,0.04297 -0.4720879,-0.04596 -0.6751681,-0.157354 -0.7167969,-0.306641 -0.038762,-0.01989 -0.074979,-0.04049 -0.1035156,-0.0625 -0.1343218,1.4e-5 -0.268022,-5.1e-5 -0.4023437,0 -0.1689099,-1.97e-4 -0.338912,-2.47e-4 -0.5078126,0.002 -0.1090523,9e-4 -0.2171271,-1.06e-4 -0.3261718,-0.0039 -0.00791,-2.9e-4 -0.010613,-0.0014 -0.023437,-0.002 -0.080146,0.01421 -0.1611322,0.03192 -0.2421875,0.03125 -0.2987865,-0.0025 -0.5803107,-0.08317 -0.8417969,-0.222656 -0.060231,-0.03213 -0.1084243,-0.06808 -0.1640625,-0.101563 -0.037196,0.01382 -0.076681,0.02226 -0.1132812,0.03711 -0.2067023,0.06927 -0.2866157,0.103178 -0.484375,0.148438 -0.1102882,0.02523 -0.2208134,0.04955 -0.3320313,0.07031 -0.040871,0.0076 -0.084064,0.02293 -0.125,0.01563 -0.022077,-0.0039 0.041987,-0.01824 0.0625,-0.02734 C 4.4633986,12.299954 4.1537889,12.291803 3.84375,12.283203 3.7171206,11.225704 3.5065351,10.74892 3.4179688,10.457031 c -0.00385,-0.0025 -0.00997,-0.0033 -0.013672,-0.0059 -0.067213,-0.04603 -0.1283145,-0.100708 -0.1914063,-0.152344 -0.025603,-0.01954 -0.035594,-0.01843 -0.050781,-0.03125 -0.01306,-0.01102 -0.022924,-0.0252 -0.035156,-0.03711 -0.028666,-0.02357 -0.058772,-0.04541 -0.087891,-0.06836 -0.037469,-0.04482 -0.1557111,-0.1707946 -0.1113281,-0.132812 0.071927,0.06155 0.1314575,0.13518 0.1992187,0.201172 0.028272,0.02324 0.057617,0.04518 0.085937,0.06836 0.068636,0.05239 0.1642258,0.130321 0.1347656,0.08594 C 3.1561787,10.096404 2.8720555,9.8668567 2.6953125,9.5722656 2.842145,9.8713178 2.9223489,10.012156 2.7988281,9.8339844 2.7916051,9.8235654 2.7839169,9.8145404 2.7792969,9.8027344 2.7481033,9.723036 2.720469,9.641735 2.6875,9.5625 2.6675259,9.5284724 2.6435028,9.4970968 2.6269531,9.4609375 2.6063135,9.415842 2.6060909,9.36137 2.59375,9.3105469 2.58395,9.2793869 2.5664717,9.2505 2.5585938,9.21875 2.5516838,9.190922 2.558024,9.16419 2.5546838,9.136719 2.5441228,9.049382 2.5410668,8.9624031 2.5527338,8.8769533 c 2.702e-4,-0.0017 -3.926e-4,-0.00268 0,-0.00391 6.26e-4,-0.00196 0.00133,-0.0039 0.00195,-0.00586 0.00936,-0.06622 0.020399,-0.1326779 0.03125,-0.1992187 C 2.6162998,8.5798456 2.6884581,8.3119527 2.6757778,8.4042927 2.6572368,8.5393087 2.6125288,8.6691886 2.5761688,8.800777 2.662344,8.532028 2.7508554,8.2645793 2.8378906,7.9960938 2.8815733,7.9643396 2.9240316,7.9308686 2.96875,7.9003906 3.0009863,7.8564212 3.027302,7.8138828 3.0800781,7.7636719 3.1172948,7.7282641 3.1553802,7.691248 3.2011719,7.6679688 3.289975,7.6228235 3.5426506,7.4703055 3.46875,7.5371094 3.3160245,7.6751688 3.1392262,7.7842019 2.96875,7.9003906 2.804,8.1251047 2.8478177,8.3119992 2.6816406,8.8710938 2.7774767,9.0979585 2.8098193,9.7408655 2.96875,9.5527344 3.4141084,9.0255501 3.5421736,8.3025668 3.8203125,7.6660156 3.6734687,7.5390527 3.5193275,7.4203209 3.3789062,7.2871094 3.3084488,7.2202692 3.4497438,7.1049304 3.4921875,7.0175781 3.5492694,6.9000994 3.6470106,6.7623675 3.71875,6.6542969 3.8634476,6.4554337 3.9431308,6.3328882 4.1054688,6.15625 4.2086265,6.0440051 4.314471,5.9343393 4.4238281,5.828125 4.4704031,5.7828885 4.5235183,5.7440586 4.5722656,5.7011719 4.8152547,5.4873956 4.7716595,5.5250353 4.9765625,5.3222656 5.2012806,5.0901052 5.1556081,5.1299811 5.1777344,5.0976562 c 5.543e-4,-0.00328 0.00139,-0.00649 0.00195,-0.00977 0.012178,-0.0706 0.089574,-0.3437931 0.099609,-0.3769531 0.00117,-0.00387 0.00135,0.00772 0.00195,0.011719 0.0011,0.028932 0.00281,0.057005 0.00391,0.085938 0.00894,-0.066034 0.00773,-0.1327018 0.011719,-0.1992188 0.027057,-0.1429458 0.045859,-0.2863319 0.080078,-0.4277344 0.023233,-0.096005 0.087525,-0.1996105 0.1445313,-0.3046875 0,0 0,-0.00195 0,-0.00195 0.024132,-0.078648 0.060375,-0.2063216 0.091797,-0.28125 C 5.6490347,3.5084923 5.691733,3.425748 5.7304688,3.3417969 5.7162527,3.3815185 5.671282,3.4998845 5.6875,3.4609375 5.715185,3.3944538 5.7382139,3.3271336 5.7636719,3.2597656 5.8104002,3.173556 5.8532769,3.083741 5.9042969,3 5.9371443,2.9460867 5.974656,2.8956894 6.015625,2.8476562 6.1951152,2.6372209 6.3683706,2.47072 6.6074219,2.3320312 6.7186662,2.2641337 6.8263159,2.1921514 6.9414062,2.1308594 c 0.040425,-0.021529 0.082123,-0.04193 0.1230469,-0.0625 0.00426,-0.00275 0.00514,-0.00402 0.00781,-0.00586 0.0018,-9.17e-4 0.00343,-7.125e-4 0.00586,-0.00195 0.0012,-8.117e-4 0.00269,-0.00116 0.00391,-0.00195 0.014242,-0.00717 0.028765,-0.014244 0.042969,-0.021484 0.012557,-0.0064 -0.01846,0.00706 -0.039063,0.017578 0.037465,-0.024468 0.1953567,-0.127907 0.1972656,-0.1289063 0.1185575,-0.062061 0.2398844,-0.1200999 0.3632813,-0.171875 0.045835,-0.019232 0.094693,-0.025729 0.1425781,-0.039062 0.039093,-0.00549 0.078059,-0.012332 0.1171875,-0.017578 0.00989,-0.00272 0.028681,-0.00967 0.037109,-0.011719 0.098131,-0.02388 0.1809983,-0.03415 0.2558594,-0.037109 z M 9.6894531,2.765625 C 9.677588,2.7497033 9.668077,2.7327562 9.65625,2.7167969 9.7937371,3.0877585 9.8272466,3.3488393 9.7753906,2.9980469 9.7464621,2.9203328 9.719909,2.8427481 9.6894531,2.765625 Z M 8.1035156,1.6699219 c 0.026547,-0.00423 -0.054642,-0.00284 -0.080078,0.00586 -0.0066,0.00226 -0.012969,0.00542 -0.019531,0.00781 0.033167,-0.00468 0.066533,-0.0084 0.099609,-0.013672 z m -2.5,2.0332031 C 5.6189056,3.673246 5.5675646,3.759971 5.5546876,3.791016 5.5475376,3.80826 5.5429446,3.826011 5.5371096,3.84375 5.5627086,3.797116 5.5860316,3.7370706 5.6035156,3.703125 Z M 3.9824219,6.5390625 C 3.9195765,6.4967066 3.7328781,6.7111661 3.7988281,6.6738281 3.8674806,6.6349604 3.9327725,6.5901087 4,6.5488281 3.99284,6.5440181 3.98963,6.5439181 3.982422,6.5390581 Z M 2.6367188,9.4257812 c -1.466e-4,0.00635 -0.00197,0.019605 -0.00195,0.025391 0.02382,0.050471 0.029801,0.058587 0.050781,0.1015625 -0.017383,-0.041925 -0.032878,-0.084576 -0.048828,-0.1269532 z" />
    </clipPath>
  </defs>
  <sodipodi:namedview
     pagecolor="#ffffff"
     bordercolor="#666666"
     borderopacity="1"
     objecttolerance="10"
     gridtolerance="10"
     guidetolerance="10"
     inkscape:pageopacity="0"
     inkscape:pageshadow="2"
     inkscape:window-width="1920"
     inkscape:window-height="1013"
     id="namedview903"
     showgrid="false"
     inkscape:zoom="52.625"
     inkscape:cx="7.8729398"
     inkscape:cy="7.8498065"
     inkscape:window-x="-9"
     inkscape:window-y="-9"
     inkscape:window-maximized="1"
     inkscape:current-layer="g1557" />
  <path
     fill-rule="evenodd"
     d="M1 8a7 7 0 1 0 14 0A7 7 0 0 0 1 8zm15 0A8 8 0 1 1 0 8a8 8 0 0 1 16 0zM8.5 4.5a.5.5 0 0 0-1 0v5.793L5.354 8.146a.5.5 0 1 0-.708.708l3 3a.5.5 0 0 0 .708 0l3-3a.5.5 0 0 0-.708-.708L8.5 10.293V4.5z"
     id="path899"
     clip-path="url(#clipPath1527)" />
  <g
     inkscape:groupmode="layer"
     id="layer1"
     inkscape:label="Layer 1" />
  <g
     style="fill:currentColor;stroke-width:180.91430782;stroke-miterlimit:4;stroke-dasharray:none"
     id="g1557"
     transform="matrix(0.8477173,0,0,0.76880396,1.2542778,2.5711912)">
    <path
       id="path1543"
       style="stroke-width:276.89;stroke-miterlimit:4;stroke-dasharray:none"
       d="M 7.8125002,1.8750005 C 7.8064114,2.3233324 7.6230241,3.2910329 8.3535158,3.2324218 11.331453,3.2733553 13.59744,6.6828559 12.594001,9.4556912 11.799618,12.080419 8.5319923,13.638525 6.0340801,12.396839 3.7559473,11.405053 2.4923349,8.4714701 3.553786,6.19384 3.9046485,5.6817201 3.4624727,4.8699699 2.8203128,5.0722654 2.1173183,5.3322998 2.1215148,6.2257021 1.9145572,6.8364772 1.2978088,9.9186406 3.3652689,13.298637 6.464058,13.998505 9.4503418,14.784878 12.90275,13.025738 13.837563,10.042331 14.825865,7.278433 13.586846,3.8817723 10.926255,2.5586499 9.9760266,2.0422728 8.8928063,1.7898576 7.8125002,1.8105465 Z" />
    <path
       id="path1545"
       style="stroke-width:180.914;stroke-miterlimit:4;stroke-dasharray:none"
       d="M 7.671875,0.109375 C 6.7402629,0.73813102 5.8877049,1.5105543 5.0410156,2.2460938 4.7343623,2.8730604 5.6458725,3.1847087 5.9824219,3.5429688 6.5682989,4.0142456 7.0951036,4.6561644 7.8203125,4.8867188 8.4959856,4.5899712 8.0745329,3.7241278 8.1850287,3.165235 8.1618052,2.2124163 8.2667521,1.2400096 8.1152344,0.30078125 8.0240027,0.15618163 7.8415709,0.06732974 7.671875,0.109375 Z" />
  </g>
</svg>
